<svg xmlns="http://www.w3.org/2000/svg" xmlns:xlink="http://www.w3.org/1999/xlink" viewBox="0 0 284.09 214.59"><defs><style>.cls-1{fill:url(#linear-gradient);}.cls-2{fill:#fff;}.cls-3{fill:#6c63ff;}.cls-4{fill:#8cc84b;}</style><linearGradient id="linear-gradient" x1="142.05" y1="6" x2="142.05" y2="220.59" gradientTransform="matrix(1, 0, 0, -1, 0, 220.59)" gradientUnits="userSpaceOnUse"><stop offset="0" stop-color="gray" stop-opacity="0.25"/><stop offset="0.54" stop-color="gray" stop-opacity="0.12"/><stop offset="1" stop-color="gray" stop-opacity="0.1"/></linearGradient></defs><g id="Layer_2" data-name="Layer 2"><g id="e8aabfee-d00f-44c0-b6f7-c40294f8dfa6"><rect class="cls-1" width="284.09" height="214.59"/><rect class="cls-2" x="6.1" y="6.1" width="271.9" height="202.4"/><rect class="cls-3" x="15.85" y="15.85" width="252.39" height="182.89"/><path class="cls-4" d="M135.31,42.78a11.77,11.77,0,0,1,11.46,0q26.17,14.79,52.34,29.57a10.77,10.77,0,0,1,5.44,9.28v59.3a10.87,10.87,0,0,1-5.85,9.48q-26.07,14.72-52.15,29.42a11.39,11.39,0,0,1-11.58-.32l-15.65-9a9.11,9.11,0,0,1-3-2.17c.67-.9,1.86-1,2.82-1.4a35.71,35.71,0,0,0,6.17-2.88,1.44,1.44,0,0,1,1.61.1c4.46,2.55,8.88,5.18,13.35,7.71.95.55,1.92-.18,2.74-.63q25.59-14.46,51.2-28.9a1.69,1.69,0,0,0,.93-1.67q0-29.34,0-58.69A1.83,1.83,0,0,0,194,80.1l-52-29.29a1.83,1.83,0,0,0-2,0l-52,29.3A1.81,1.81,0,0,0,87,81.93v58.7a1.66,1.66,0,0,0,.94,1.64c4.63,2.63,9.26,5.23,13.88,7.84,2.61,1.4,5.81,2.24,8.68,1.16a6.58,6.58,0,0,0,4.26-6.18c0-19.45,0-38.9,0-58.35a1.47,1.47,0,0,1,1.59-1.5c2.23,0,4.45,0,6.67,0A1.53,1.53,0,0,1,124.45,87c0,19.57,0,39.14,0,58.72,0,5.21-2.14,10.89-7,13.44-5.94,3.08-13.29,2.43-19.16-.53-5.08-2.53-9.93-5.53-14.93-8.25a10.83,10.83,0,0,1-5.84-9.48V81.63a10.78,10.78,0,0,1,5.63-9.4Z"/><path class="cls-4" d="M150.48,83.87c7.58-.49,15.7-.29,22.52,3.44,5.28,2.86,8.21,8.87,8.31,14.74a1.59,1.59,0,0,1-1.73,1.17c-2.2,0-4.4,0-6.6,0-.94,0-1.48-.83-1.6-1.65-.63-2.81-2.16-5.59-4.8-6.94-4.06-2-8.76-1.93-13.19-1.89-3.23.17-6.7.45-9.44,2.35a6,6,0,0,0-2,6.68c.71,1.68,2.65,2.22,4.23,2.72,9.14,2.39,18.82,2.15,27.79,5.3,3.71,1.28,7.34,3.77,8.61,7.66,1.66,5.21.93,11.43-2.77,15.61-3,3.44-7.38,5.31-11.75,6.33a56.06,56.06,0,0,1-17.72.75c-5.55-.63-11.32-2.09-15.6-5.86a16.36,16.36,0,0,1-5.27-12.91,1.47,1.47,0,0,1,1.62-1.3c2.22,0,4.43,0,6.65,0a1.54,1.54,0,0,1,1.58,1.53c.41,2.68,1.42,5.49,3.75,7.07,4.5,2.91,10.15,2.71,15.31,2.79,4.27-.19,9.06-.25,12.55-3.07a6.91,6.91,0,0,0,1.88-6.62c-.53-2-2.58-2.87-4.34-3.47-9-2.85-18.81-1.81-27.74-5-3.63-1.28-7.14-3.71-8.53-7.43-1.94-5.27-1.05-11.8,3-15.84s9.75-5.56,15.23-6.11Z"/></g></g></svg>